<svg width="23" height="36" viewBox="0 0 23 36" fill="none" xmlns="http://www.w3.org/2000/svg">
<path opacity="0.06" d="M8.29479 15.3529C8.87822 16.2941 9.32213 17.5 9.62652 18.9706C9.93092 20.3824 10.0831 21.9706 10.0831 23.7353C10.0831 27.3824 9.56311 30.3529 8.52309 32.6471C7.48307 34.8824 6.20207 36 4.68009 36C3.28494 36 2.15614 35.0294 1.29368 33.0882C0.431228 31.1471 0 28.6176 0 25.5C0 23.9118 0.126832 22.3824 0.380495 20.9118C0.634159 19.4412 1.10344 17.5588 1.78833 15.2647L6.27817 0H11.6051L8.29479 15.3529ZM19.3291 15.3529C19.9126 16.2941 20.3565 17.5 20.6609 18.9706C20.9653 20.3824 21.1175 21.9706 21.1175 23.7353C21.1175 27.3824 20.5975 30.3529 19.5574 32.6471C18.5174 34.8824 17.2364 36 15.7144 36C14.3193 36 13.1905 35.0294 12.328 33.0882C11.4656 31.1471 11.0344 28.6176 11.0344 25.5C11.0344 23.9118 11.1612 22.3824 11.4149 20.9118C11.6685 19.4412 12.1378 17.5588 12.8227 15.2647L17.3125 0H22.6395L19.3291 15.3529Z" fill="#333333"/>
</svg>
