<svg width="48" height="48" viewBox="0 0 48 48" fill="none" xmlns="http://www.w3.org/2000/svg">
<g filter="url(#filter0_d_4492_1739)">
<path d="M15 14C15 13.4477 15.4477 13 16 13H32C32.5523 13 33 13.4477 33 14C33 14.5523 32.5523 15 32 15H16C15.4477 15 15 14.5523 15 14ZM15 20C15 19.4477 15.4477 19 16 19H32C32.5523 19 33 19.4477 33 20C33 20.5523 32.5523 21 32 21H16C15.4477 21 15 20.5523 15 20ZM15 26C15 25.4477 15.4477 25 16 25H32C32.5523 25 33 25.4477 33 26C33 26.5523 32.5523 27 32 27H16C15.4477 27 15 26.5523 15 26Z" fill="#03B2A5"/>
</g>
<defs>
<filter id="filter0_d_4492_1739" x="0" y="0" width="48" height="48" filterUnits="userSpaceOnUse" color-interpolation-filters="sRGB">
<feFlood flood-opacity="0" result="BackgroundImageFix"/>
<feColorMatrix in="SourceAlpha" type="matrix" values="0 0 0 0 0 0 0 0 0 0 0 0 0 0 0 0 0 0 127 0" result="hardAlpha"/>
<feOffset dy="4"/>
<feGaussianBlur stdDeviation="2"/>
<feComposite in2="hardAlpha" operator="out"/>
<feColorMatrix type="matrix" values="0 0 0 0 0 0 0 0 0 0 0 0 0 0 0 0 0 0 0.25 0"/>
<feBlend mode="normal" in2="BackgroundImageFix" result="effect1_dropShadow_4492_1739"/>
<feBlend mode="normal" in="SourceGraphic" in2="effect1_dropShadow_4492_1739" result="shape"/>
</filter>
</defs>
</svg>
