<svg width="55" height="48" viewBox="0 0 55 48" fill="none" xmlns="http://www.w3.org/2000/svg">
<rect width="64" height="48" rx="4" fill="#16C8BB"/>
<path d="M23 25.0001H29V23.0001H23V13.8461C23 13.7592 23.0227 13.6738 23.0657 13.5984C23.1088 13.5229 23.1708 13.46 23.2456 13.4158C23.3204 13.3716 23.4054 13.3476 23.4923 13.3463C23.5791 13.3449 23.6649 13.3662 23.741 13.4081L42.203 23.5621C42.2814 23.6053 42.3468 23.6687 42.3923 23.7457C42.4378 23.8228 42.4618 23.9106 42.4618 24.0001C42.4618 24.0896 42.4378 24.1774 42.3923 24.2545C42.3468 24.3315 42.2814 24.3949 42.203 24.4381L23.741 34.5921C23.6649 34.634 23.5791 34.6553 23.4923 34.654C23.4054 34.6526 23.3204 34.6287 23.2456 34.5844C23.1708 34.5402 23.1088 34.4773 23.0657 34.4018C23.0227 34.3264 23 34.241 23 34.1541V25.0001Z" fill="white"/>
</svg>
